# xmcd
#
# Track frame offsets:
#	150
#	13182
#	24622
#	38250
#	51560
#	69297
#	83370
#	103347
#	117797
#	131467
#	150310
#	163202
#	178922
#	195497
#	211380
#	230312
#	242575
#	254992
#	269675
#	281835
#
# Disc length: 4078 seconds
#
# Revision: 0
# Processed by: cddbd v1.4PL0 Copyright (c) Steve Scherf et al.
# Submitted via: dBpowerAMP V4.0
#
DISCID=1b0fec14
DTITLE=Various Artist - Country Love
DYEAR=1900
DGENRE=Country
TTITLE0=Dr Hook and A Little Bit More
TTITLE1=Crystal Gale and Don't It Make My Brown Eyes Blue
TTITLE2=Glen Campbell and Wichita Lineman
TTITLE3=Dolly Parton and Here You Come Again
TTITLE4=Lee Greenwood and The Wind Beneath My Wings
TTITLE5=Don Williams and Lone Star State Of Mind
TTITLE6=Patty Smith Duet With Don Henley and Sometimes Love Just Ain't Enough
TTITLE7=Bellamy Brothers and If I Said You Have A Beautiful Body (Would You Hold It Against Me)
TTITLE8=Willie Nelson and Funny How Time Slips Away
TTITLE9=Nancy Griffith and From A Distance
TTITLE10=Bobby Gentry and I'll Never Fall In Love Again
TTITLE11=Hal Ketchum and I Know Where Love Lives
TTITLE12=Don McLean and Crying
TTITLE13=Billie Jo Spears and Blanket On The Ground
TTITLE14=Keith Whitley and Don't Close Your Eyes
TTITLE15=Patsy Cline and Crazy
TTITLE16=Jim Reeves and I Love You Because
TTITLE17=Olivia Newton-John and Banks Of The Ohio 
TTITLE18=Tammy Wynette and Help Me Make It Through The Night
TTITLE19=Judds and Love Will Build A Bridge
EXTD=
EXTT0=
EXTT1=
EXTT2=
EXTT3=
EXTT4=
EXTT5=
EXTT6=
EXTT7=
EXTT8=
EXTT9=
EXTT10=
EXTT11=
EXTT12=
EXTT13=
EXTT14=
EXTT15=
EXTT16=
EXTT17=
EXTT18=
EXTT19=
PLAYORDER=
